HIERARCHY
ROOT Pelvis
{
	OFFSET 0.000000 0.000000 0.000000
	CHANNELS 6 Xposition Yposition Zposition Xrotation Yrotation Zrotation
	JOINT LeftUpLeg_virtual
	{
		OFFSET 0.000000 0.000000 0.000000
		CHANNELS 3 Xrotation Yrotation Zrotation
		JOINT LeftUpLeg
		{
			OFFSET 18.735201 -5.666702 -4.541200
			CHANNELS 3 Xrotation Yrotation Zrotation
			JOINT LeftLeg
			{
				OFFSET -0.021200 -31.938179 0.493100
				CHANNELS 3 Xrotation Yrotation Zrotation
				JOINT LeftFoot
				{
					OFFSET 0.021200 -31.938179 -4.336299
					CHANNELS 3 Xrotation Yrotation Zrotation
					JOINT LeftToeBase
					{
						OFFSET 0.943001 -26.722000 15.023500
						CHANNELS 3 Xrotation Yrotation Zrotation
						End Site
						{
							OFFSET 0 0 0
						}
					}
				}
			}
		}
	}
	JOINT RightUpLeg_virtual
	{
		OFFSET 0.000000 0.000000 0.000000
		CHANNELS 3 Xrotation Yrotation Zrotation
		JOINT RightUpLeg
		{
			OFFSET -18.735201 -5.666702 -4.541200
			CHANNELS 3 Xrotation Yrotation Zrotation
			JOINT RightLeg
			{
				OFFSET 0.018946 -31.938133 0.493100
				CHANNELS 3 Xrotation Yrotation Zrotation
				JOINT RightFoot
				{
					OFFSET -0.018946 -31.938126 -4.336299
					CHANNELS 3 Xrotation Yrotation Zrotation
					JOINT RightToeBase
					{
						OFFSET -0.943001 -26.722004 15.023500
						CHANNELS 3 Xrotation Yrotation Zrotation
						End Site
						{
							OFFSET 0 0 0
						}
					}
				}
			}
		}
	}
	JOINT Hips_virtual
	{
		OFFSET 0.000000 0.000000 0.000000
		CHANNELS 3 Xrotation Yrotation Zrotation
		JOINT Hips
		{
			OFFSET -0.000000 -0.000000 -0.000000
			CHANNELS 3 Xrotation Yrotation Zrotation
			JOINT Spine
			{
				OFFSET 0.000000 10.199997 -0.299500
				CHANNELS 3 Xrotation Yrotation Zrotation
				JOINT Spine1
				{
					OFFSET 0.000000 11.900002 -1.516600
					CHANNELS 3 Xrotation Yrotation Zrotation
					JOINT Spine2
					{
						OFFSET 0.000000 13.600006 -2.842500
						CHANNELS 3 Xrotation Yrotation Zrotation
						JOINT Neck_virtual
						{
							OFFSET 0.000000 0.000000 0.000000
							CHANNELS 3 Xrotation Yrotation Zrotation
							JOINT Neck
							{
								OFFSET 0.000000 9.624100 -2.890100
								CHANNELS 3 Xrotation Yrotation Zrotation
								JOINT Head
								{
									OFFSET 0.000000 14.068802 -1.351900
									CHANNELS 3 Xrotation Yrotation Zrotation
									End Site
									{
										OFFSET 0 0 0
									}
								}
							}
						}
						JOINT LeftShoulder_virtual
						{
							OFFSET 0.000000 0.000000 0.000000
							CHANNELS 3 Xrotation Yrotation Zrotation
							JOINT LeftShoulder
							{
								OFFSET 15.263000 10.923401 -0.547700
								CHANNELS 3 Xrotation Yrotation Zrotation
								JOINT LeftArm
								{
									OFFSET 25.438599 -2.830597 -13.032500
									CHANNELS 3 Xrotation Yrotation Zrotation
									JOINT LeftForeArm
									{
										OFFSET 29.960503 0.000000 0.000000
										CHANNELS 3 Xrotation Yrotation Zrotation
										JOINT LeftHand
										{
											OFFSET 27.849251 0.000000 0.000000
											CHANNELS 3 Xrotation Yrotation Zrotation
											End Site
											{
												OFFSET 0 0 0
											}
										}
									}
								}
							}
						}
						JOINT RightShoulder_virtual
						{
							OFFSET 0.000000 0.000000 0.000000
							CHANNELS 3 Xrotation Yrotation Zrotation
							JOINT RightShoulder
							{
								OFFSET -15.263000 10.923401 -0.547700
								CHANNELS 3 Xrotation Yrotation Zrotation
								JOINT RightArm
								{
									OFFSET -25.438599 -2.830597 -13.032500
									CHANNELS 3 Xrotation Yrotation Zrotation
									JOINT RightForeArm
									{
										OFFSET -29.960503 0.000000 0.000000
										CHANNELS 3 Xrotation Yrotation Zrotation
										JOINT RightHand
										{
											OFFSET -27.849251 0.000000 0.000000
											CHANNELS 3 Xrotation Yrotation Zrotation
											End Site
											{
												OFFSET 0 0 0
											}
										}
									}
								}
							}
						}
					}
				}
			}
		}
	}
}
MOTION
Frames: 10
Frame Time: 0.03333333
-0.074016 92.726166 -0.923382 0.000000 0.000000 0.000000 0.317524 2.848730 -0.439158 -17.113739 9.255233 7.570109 30.840712 -1.732455 2.636920 -9.489514 3.558210 -6.213604 0.000000 0.000000 0.000000 -0.051929 3.951091 -0.965571 -7.186312 -8.818660 -3.997966 25.284479 -8.857507 7.181608 -21.293180 -15.465024 0.825673 0.000000 0.000000 0.000000 -0.142782 3.497868 -0.303703 -0.763520 -0.356129 -1.357690 19.976954 -0.917475 -0.988915 1.441738 -0.529595 1.252053 0.000000 0.000000 0.000000 0.433730 -0.188387 0.734155 7.200551 0.355473 0.803480 0.000000 0.000000 0.000000 0.623393 0.020096 0.737701 10.761738 -37.469694 -0.434389 8.014074 12.510194 -53.934193 1.612368 -28.402126 0.968210 0.000000 0.000000 0.000000 0.320329 -0.077723 0.450259 0.082510 -1.773919 3.531521 1.064857 21.462748 38.655930 0.240364 20.041682 0.089480 0.000000 0.000000 0.000000 
-0.019547 92.813980 -0.724325 0.000000 0.000000 0.000000 0.131505 2.761068 -0.421871 -16.730724 9.388085 7.637531 30.694880 -1.806213 2.533082 -9.402673 3.645931 -6.187400 0.000000 0.000000 0.000000 -0.256887 3.871247 -0.945061 -6.526583 -8.824912 -3.815491 24.643527 -8.959659 7.044756 -21.316083 -15.597548 0.804882 0.000000 0.000000 0.000000 -0.339408 3.437407 -0.304502 -0.766849 -0.354337 -1.347779 19.547827 -0.892866 -0.824978 1.447711 -0.543572 1.195019 0.000000 0.000000 0.000000 0.521685 -0.175557 0.681347 7.264970 0.101717 0.796706 0.000000 0.000000 0.000000 0.571395 0.034999 0.644985 10.366695 -37.190831 -0.685979 9.388237 13.456938 -53.797029 1.643920 -28.499407 1.074978 0.000000 0.000000 0.000000 0.343460 -0.070718 0.381527 -0.022727 -2.153394 3.661335 2.175075 20.809390 38.284289 0.212429 20.691551 0.019513 0.000000 0.000000 0.000000 
0.016392 92.872444 -0.573380 0.000000 0.000000 0.000000 -0.033978 2.785340 -0.413908 -16.512843 9.501693 7.712243 30.685175 -1.898123 2.460728 -9.286878 3.751481 -6.152766 0.000000 0.000000 0.000000 -0.444502 3.890287 -0.930656 -5.985137 -8.868645 -3.669131 24.149128 -9.044614 6.940406 -21.455934 -15.783461 0.731947 0.000000 0.000000 0.000000 -0.513014 3.469503 -0.300243 -0.744740 -0.339767 -1.341285 19.203874 -0.790447 -0.723053 1.467571 -0.536610 1.166678 0.000000 0.000000 0.000000 0.608477 -0.142769 0.644148 7.307641 -0.134169 0.796414 0.000000 0.000000 0.000000 0.534722 0.072454 0.578304 9.960448 -36.798723 -0.981928 10.373743 13.793523 -53.929514 1.679505 -28.673814 1.175800 0.000000 0.000000 0.000000 0.391422 -0.041121 0.334418 -0.053471 -2.329466 3.882078 2.328209 20.239292 38.807113 0.235092 21.102418 -0.067853 0.000000 0.000000 0.000000 
0.041638 92.897446 -0.460520 0.000000 0.000000 0.000000 -0.168901 2.908656 -0.415128 -16.414963 9.565522 7.765252 30.785097 -2.028185 2.428424 -9.236217 3.843489 -6.150841 0.000000 0.000000 0.000000 -0.602822 4.004353 -0.927341 -5.593760 -8.912698 -3.572577 23.874697 -9.094065 6.858942 -21.671837 -16.002338 0.601705 0.000000 0.000000 0.000000 -0.660016 3.591068 -0.289790 -0.717724 -0.330606 -1.326949 18.932586 -0.636425 -0.667315 1.498084 -0.517196 1.169861 0.000000 0.000000 0.000000 0.675945 -0.097978 0.629373 7.319672 -0.343500 0.803532 0.000000 0.000000 0.000000 0.515581 0.121100 0.544249 9.577414 -36.348832 -1.264767 10.905494 13.641013 -54.321601 1.693610 -28.697002 1.248813 0.000000 0.000000 0.000000 0.445946 -0.000081 0.310506 -0.022400 -2.356370 4.207553 1.594426 19.728897 40.081784 0.309393 21.174710 -0.160631 0.000000 0.000000 0.000000 
0.053725 92.900475 -0.392153 0.000000 0.000000 0.000000 -0.268127 3.099997 -0.416833 -16.351744 9.556011 7.761015 30.883677 -2.219924 2.437275 -9.303068 3.873176 -6.239579 0.000000 0.000000 0.000000 -0.715863 4.189305 -0.922271 -5.367234 -8.933099 -3.524534 23.814851 -9.085001 6.799931 -21.869497 -16.208377 0.506372 0.000000 0.000000 0.000000 -0.774683 3.777805 -0.278020 -0.681506 -0.302575 -1.303260 18.723135 -0.456133 -0.645285 1.534645 -0.493939 1.194989 0.000000 0.000000 0.000000 0.712621 -0.051395 0.634931 7.303216 -0.521131 0.818211 0.000000 0.000000 0.000000 0.509470 0.169114 0.544008 9.255796 -35.901131 -1.485082 11.000632 13.100742 -54.939508 1.696899 -28.636359 1.289083 0.000000 0.000000 0.000000 0.494390 0.041374 0.305928 0.061982 -2.224728 4.676995 0.182056 19.281479 41.918005 0.426170 20.944941 -0.239121 0.000000 0.000000 0.000000 
0.057506 92.891937 -0.356384 0.000000 0.000000 0.000000 -0.327769 3.322751 -0.411493 -16.262088 9.487527 7.681357 30.903437 -2.465461 2.482526 -9.422248 3.841552 -6.414505 0.000000 0.000000 0.000000 -0.787765 4.417602 -0.908464 -5.266340 -8.934652 -3.513298 23.887941 -9.021503 6.769301 -21.985677 -16.383725 0.518297 0.000000 0.000000 0.000000 -0.856569 4.004754 -0.262997 -0.651083 -0.280519 -1.295136 18.551029 -0.264859 -0.649808 1.575458 -0.474387 1.231151 0.000000 0.000000 0.000000 0.725311 -0.012228 0.650280 7.259375 -0.662490 0.840215 0.000000 0.000000 0.000000 0.510314 0.207052 0.566639 9.011063 -35.494806 -1.628569 10.712143 12.299612 -55.683230 1.699633 -28.710311 1.299633 0.000000 0.000000 0.000000 0.539861 0.076220 0.308267 0.191411 -1.917560 5.292781 -1.716996 18.949243 44.265756 0.573201 20.480189 -0.293843 0.000000 0.000000 0.000000 
0.057218 92.884293 -0.337231 0.000000 0.000000 0.000000 -0.354637 3.555074 -0.384714 -16.142961 9.409298 7.527430 30.858388 -2.725916 2.554016 -9.500006 3.789853 -6.605863 0.000000 0.000000 0.000000 -0.827096 4.665315 -0.872656 -5.235153 -8.936073 -3.542399 24.045690 -8.930172 6.761492 -22.084930 -16.553001 0.612522 0.000000 0.000000 0.000000 -0.902120 4.237205 -0.234439 -0.631256 -0.275288 -1.292838 18.389554 -0.077865 -0.675578 1.617570 -0.460907 1.266220 0.000000 0.000000 0.000000 0.727987 0.018060 0.667390 7.198226 -0.765514 0.867945 0.000000 0.000000 0.000000 0.520013 0.234404 0.599845 8.839359 -35.129145 -1.700105 10.140666 11.301897 -56.498522 1.704390 -29.030496 1.287188 0.000000 0.000000 0.000000 0.584365 0.101974 0.311601 0.376410 -1.398779 6.036693 -3.945528 18.751904 47.089356 0.726776 19.901923 -0.334796 0.000000 0.000000 0.000000 
0.056019 92.879433 -0.328974 0.000000 0.000000 0.000000 -0.364899 3.798923 -0.327037 -16.002850 9.342895 7.314633 30.770176 -2.972484 2.645642 -9.488946 3.744853 -6.755809 0.000000 0.000000 0.000000 -0.849566 4.921107 -0.801442 -5.219040 -8.949867 -3.611261 24.225306 -8.847863 6.756791 -22.244164 -16.749454 0.712708 0.000000 0.000000 0.000000 -0.918701 4.465166 -0.176288 -0.617389 -0.272003 -1.298545 18.199874 0.105731 -0.724891 1.659640 -0.451721 1.293236 0.000000 0.000000 0.000000 0.725945 0.037379 0.674612 7.127828 -0.831201 0.895908 0.000000 0.000000 0.000000 0.535823 0.252786 0.631871 8.739084 -34.794999 -1.722747 9.304439 10.116754 -57.352675 1.699748 -29.456314 1.255610 0.000000 0.000000 0.000000 0.635506 0.122571 0.308493 0.606607 -0.647298 6.834145 -6.377365 18.740338 50.339239 0.863313 19.210100 -0.369628 0.000000 0.000000 0.000000 
0.053118 92.881645 -0.313560 0.000000 0.000000 0.000000 -0.367931 4.054329 -0.226204 -15.852458 9.302117 7.060311 30.669728 -3.201525 2.752933 -9.396007 3.721564 -6.828073 0.000000 0.000000 0.000000 -0.867389 5.171841 -0.682992 -5.158627 -8.954095 -3.716548 24.368751 -8.792529 6.729646 -22.482213 -16.988784 0.780761 0.000000 0.000000 0.000000 -0.918606 4.679038 -0.070264 -0.607301 -0.266898 -1.287865 17.945494 0.290641 -0.797854 1.700017 -0.445550 1.312074 0.000000 0.000000 0.000000 0.721384 0.049108 0.674307 7.059017 -0.860608 0.920451 0.000000 0.000000 0.000000 0.554490 0.267610 0.661633 8.681853 -34.472620 -1.724036 8.178719 8.741185 -58.266356 1.664789 -29.700224 1.205401 0.000000 0.000000 0.000000 0.695518 0.139330 0.304355 0.868670 0.347531 7.610391 -8.835393 18.896949 53.818667 0.962532 18.505762 -0.385335 0.000000 0.000000 0.000000 
0.053592 92.888702 -0.269745 0.000000 0.000000 0.000000 -0.376280 4.314333 -0.074688 -15.678950 9.291298 6.773610 30.575171 -3.415391 2.869566 -9.277085 3.716996 -6.828211 0.000000 0.000000 0.000000 -0.882144 5.415218 -0.510530 -5.059548 -8.917272 -3.858416 24.479388 -8.747988 6.668774 -22.721794 -17.255857 0.861553 0.000000 0.000000 0.000000 -0.915680 4.879371 0.092893 -0.608625 -0.261295 -1.248055 17.593254 0.478761 -0.889730 1.736734 -0.439822 1.329353 0.000000 0.000000 0.000000 0.717614 0.056927 0.678347 7.001951 -0.858411 0.937785 0.000000 0.000000 0.000000 0.571804 0.282115 0.696492 8.642068 -34.145260 -1.744685 6.758402 7.120227 -59.296472 1.592685 -29.625044 1.140137 0.000000 0.000000 0.000000 0.755550 0.156039 0.306363 1.154598 1.542078 8.289982 -11.153954 19.210175 57.298662 1.015135 17.882349 -0.370785 0.000000 0.000000 0.000000 
